<mxfile host="Electron" agent="Mozilla/5.0 (Windows NT 10.0; Win64; x64) AppleWebKit/537.36 (KHTML, like Gecko) draw.io/26.2.2 Chrome/134.0.6998.178 Electron/35.1.2 Safari/537.36" version="26.2.2">
  <diagram name="Page-1" id="UNRkr0AG_kbd2SF0w7no">
    <mxGraphModel dx="2040" dy="1201" grid="1" gridSize="10" guides="1" tooltips="1" connect="1" arrows="1" fold="1" page="1" pageScale="1" pageWidth="1654" pageHeight="2336" math="0" shadow="0">
      <root>
        <mxCell id="0" />
        <mxCell id="1" parent="0" />
        <mxCell id="aN_UUc18keHhUFXdZ6uV-2" value="&lt;h3 class=&quot;&quot; data-end=&quot;106&quot; data-start=&quot;81&quot;&gt;1. &lt;strong data-end=&quot;106&quot; data-start=&quot;88&quot;&gt;Simu_Send_Data&lt;/strong&gt;&lt;/h3&gt;&lt;h3 class=&quot;&quot; data-end=&quot;102&quot; data-start=&quot;77&quot;&gt;&lt;ul data-end=&quot;423&quot; data-start=&quot;110&quot;&gt;&lt;li class=&quot;&quot; data-end=&quot;351&quot; data-start=&quot;110&quot;&gt;&lt;p class=&quot;&quot; data-end=&quot;351&quot; data-start=&quot;112&quot;&gt;&lt;strong data-end=&quot;123&quot; data-start=&quot;112&quot;&gt;Función&lt;/strong&gt;: &lt;span style=&quot;font-weight: normal;&quot;&gt;Este bloque se encarga de &lt;span data-end=&quot;167&quot; data-start=&quot;151&quot;&gt;enviar datos&lt;/span&gt; a través de una &lt;span data-end=&quot;202&quot; data-start=&quot;184&quot;&gt;solicitud HTTP&lt;/span&gt; utilizando una &lt;span data-end=&quot;230&quot; data-start=&quot;218&quot;&gt;API REST&lt;/span&gt;. Los datos que se envían son preparados previamente y luego transmitidos al receptor, para ser almacenados y procesados.&lt;/span&gt;&lt;/p&gt;&lt;/li&gt;&lt;li class=&quot;&quot; data-end=&quot;423&quot; data-start=&quot;355&quot;&gt;&lt;p class=&quot;&quot; data-end=&quot;423&quot; data-start=&quot;357&quot;&gt;&lt;strong data-end=&quot;367&quot; data-start=&quot;357&quot;&gt;Salida&lt;/strong&gt;: &lt;span style=&quot;font-weight: normal;&quot;&gt;Envia datos a través de la API REST hacia el receptor.&lt;/span&gt;&lt;/p&gt;&lt;/li&gt;&lt;/ul&gt;&lt;/h3&gt;" style="rounded=1;whiteSpace=wrap;html=1;align=left;glass=0;shadow=1;sketch=1;curveFitting=1;jiggle=2;" vertex="1" parent="1">
          <mxGeometry x="110" y="95" width="390" height="200" as="geometry" />
        </mxCell>
        <mxCell id="aN_UUc18keHhUFXdZ6uV-3" value="&lt;h3 class=&quot;&quot; data-end=&quot;458&quot; data-start=&quot;425&quot;&gt;2. &lt;strong data-end=&quot;458&quot; data-start=&quot;432&quot;&gt;Simu_Endpoint_Receiver&lt;/strong&gt;&lt;/h3&gt;&lt;h3 class=&quot;&quot; data-end=&quot;371&quot; data-start=&quot;338&quot;&gt;&lt;ul data-end=&quot;859&quot; data-start=&quot;462&quot;&gt;&lt;li class=&quot;&quot; data-end=&quot;674&quot; data-start=&quot;462&quot;&gt;&lt;p class=&quot;&quot; data-end=&quot;674&quot; data-start=&quot;464&quot;&gt;&lt;strong data-end=&quot;475&quot; data-start=&quot;464&quot;&gt;Función&lt;/strong&gt;: &lt;span style=&quot;font-weight: normal;&quot;&gt;Este bloque actúa como un &lt;span data-end=&quot;549&quot; data-start=&quot;503&quot;&gt;receptor de datos a través de una API REST&lt;/span&gt;. Recibe las solicitudes HTTP enviadas por &lt;code data-end=&quot;608&quot; data-start=&quot;592&quot;&gt;Simu_Send_Data&lt;/code&gt;, y &lt;span data-end=&quot;672&quot; data-start=&quot;612&quot;&gt;almacena los datos recibidos en una base de datos SQLite&lt;/span&gt;.&lt;/span&gt;&lt;/p&gt;&lt;/li&gt;&lt;li class=&quot;&quot; data-end=&quot;755&quot; data-start=&quot;678&quot;&gt;&lt;p class=&quot;&quot; data-end=&quot;755&quot; data-start=&quot;680&quot;&gt;&lt;strong data-end=&quot;691&quot; data-start=&quot;680&quot;&gt;Entrada&lt;/strong&gt;: &lt;span style=&quot;font-weight: normal;&quot;&gt;Recibe los datos de la solicitud HTTP a través de la API REST.&lt;/span&gt;&lt;/p&gt;&lt;/li&gt;&lt;li class=&quot;&quot; data-end=&quot;859&quot; data-start=&quot;759&quot;&gt;&lt;p class=&quot;&quot; data-end=&quot;859&quot; data-start=&quot;761&quot;&gt;&lt;strong data-end=&quot;771&quot; data-start=&quot;761&quot;&gt;Salida&lt;/strong&gt;: &lt;span style=&quot;font-weight: normal;&quot;&gt;Los datos se almacenan en una base de datos SQLite para ser procesados posteriormente.&lt;/span&gt;&lt;/p&gt;&lt;/li&gt;&lt;/ul&gt;&lt;/h3&gt;" style="rounded=1;whiteSpace=wrap;html=1;align=left;glass=0;shadow=1;sketch=1;curveFitting=1;jiggle=2;" vertex="1" parent="1">
          <mxGeometry x="650" y="60" width="380" height="270" as="geometry" />
        </mxCell>
        <mxCell id="aN_UUc18keHhUFXdZ6uV-4" value="&lt;h3 class=&quot;&quot; data-end=&quot;893&quot; data-start=&quot;861&quot;&gt;3. &lt;strong data-end=&quot;893&quot; data-start=&quot;868&quot;&gt;Simu_Spark_Processing&lt;/strong&gt;&lt;/h3&gt;&lt;h3 class=&quot;&quot; data-end=&quot;371&quot; data-start=&quot;338&quot;&gt;&lt;ul data-end=&quot;1406&quot; data-start=&quot;897&quot;&gt;&lt;li class=&quot;&quot; data-end=&quot;1256&quot; data-start=&quot;897&quot;&gt;&lt;p class=&quot;&quot; data-end=&quot;1256&quot; data-start=&quot;899&quot;&gt;&lt;strong data-end=&quot;910&quot; data-start=&quot;899&quot;&gt;Función&lt;/strong&gt;: &lt;span style=&quot;font-weight: normal;&quot;&gt;Este bloque lee los datos desde la base de datos SQLite que fueron almacenados por el bloque &lt;code data-end=&quot;1029&quot; data-start=&quot;1005&quot;&gt;Simu_Endpoint_Receiver&lt;/code&gt;. &lt;span data-end=&quot;1069&quot; data-start=&quot;1031&quot;&gt;Procesa los datos utilizando Spark&lt;/span&gt;, realizando operaciones como limpieza, análisis y el cálculo de métricas (como energía, tempo, etc.). Finalmente, después del procesamiento, &lt;span data-end=&quot;1236&quot; data-start=&quot;1211&quot;&gt;genera un archivo CSV&lt;/span&gt; con los resultados.&lt;/span&gt;&lt;/p&gt;&lt;/li&gt;&lt;li class=&quot;&quot; data-end=&quot;1316&quot; data-start=&quot;1260&quot;&gt;&lt;p class=&quot;&quot; data-end=&quot;1316&quot; data-start=&quot;1262&quot;&gt;&lt;strong data-end=&quot;1273&quot; data-start=&quot;1262&quot;&gt;Entrada&lt;/strong&gt;: &lt;span style=&quot;font-weight: normal;&quot;&gt;Lee los datos de la base de datos SQLite.&lt;/span&gt;&lt;/p&gt;&lt;/li&gt;&lt;li class=&quot;&quot; data-end=&quot;1406&quot; data-start=&quot;1320&quot;&gt;&lt;p class=&quot;&quot; data-end=&quot;1406&quot; data-start=&quot;1322&quot;&gt;&lt;strong data-end=&quot;1332&quot; data-start=&quot;1322&quot;&gt;Salida&lt;/strong&gt;: &lt;span style=&quot;font-weight: normal;&quot;&gt;El procesamiento genera un archivo CSV con los resultados transformados.&lt;/span&gt;&lt;/p&gt;&lt;/li&gt;&lt;/ul&gt;&lt;/h3&gt;" style="rounded=1;whiteSpace=wrap;html=1;align=left;glass=0;shadow=1;sketch=1;curveFitting=1;jiggle=2;" vertex="1" parent="1">
          <mxGeometry x="1115" y="415" width="380" height="290" as="geometry" />
        </mxCell>
        <mxCell id="aN_UUc18keHhUFXdZ6uV-9" value="" style="shape=singleArrow;whiteSpace=wrap;html=1;arrowWidth=0.4;arrowSize=0.4;align=left;rounded=1;glass=0;shadow=1;sketch=1;curveFitting=1;jiggle=2;" vertex="1" parent="1">
          <mxGeometry x="1070" y="165" width="110" height="60" as="geometry" />
        </mxCell>
        <mxCell id="aN_UUc18keHhUFXdZ6uV-12" value="" style="shape=singleArrow;whiteSpace=wrap;html=1;arrowWidth=0.4;arrowSize=0.4;align=left;rounded=1;glass=0;shadow=1;sketch=1;curveFitting=1;jiggle=2;" vertex="1" parent="1">
          <mxGeometry x="520" y="165" width="110" height="60" as="geometry" />
        </mxCell>
        <mxCell id="aN_UUc18keHhUFXdZ6uV-13" value="" style="shape=singleArrow;whiteSpace=wrap;html=1;arrowWidth=0.4;arrowSize=0.4;align=left;rounded=1;glass=0;shadow=1;sketch=1;curveFitting=1;jiggle=2;rotation=90;" vertex="1" parent="1">
          <mxGeometry x="1260" y="320" width="90" height="60" as="geometry" />
        </mxCell>
        <mxCell id="aN_UUc18keHhUFXdZ6uV-14" value="" style="shape=image;verticalLabelPosition=bottom;labelBackgroundColor=default;verticalAlign=top;aspect=fixed;imageAspect=0;image=https://cdn-icons-png.flaticon.com/512/8242/8242984.png;" vertex="1" parent="1">
          <mxGeometry x="730" y="460" width="200" height="200" as="geometry" />
        </mxCell>
        <mxCell id="aN_UUc18keHhUFXdZ6uV-16" value="" style="shape=singleArrow;whiteSpace=wrap;html=1;arrowWidth=0.4;arrowSize=0.4;align=left;rounded=1;glass=0;shadow=1;sketch=1;curveFitting=1;jiggle=2;rotation=-180;" vertex="1" parent="1">
          <mxGeometry x="960" y="530" width="110" height="60" as="geometry" />
        </mxCell>
        <mxCell id="aN_UUc18keHhUFXdZ6uV-20" value="" style="shape=image;verticalLabelPosition=bottom;labelBackgroundColor=default;verticalAlign=top;aspect=fixed;imageAspect=0;image=https://static-00.iconduck.com/assets.00/sql-database-sql-azure-icon-489x512-l5jhenj6.png;" vertex="1" parent="1">
          <mxGeometry x="1221.43" y="107.5" width="167.14" height="175" as="geometry" />
        </mxCell>
      </root>
    </mxGraphModel>
  </diagram>
</mxfile>
